<svg xmlns="http://www.w3.org/2000/svg" viewBox="0 0 1200 309"><path d="M379.6 111.7c-2.3-16.7-11.5-31.2-28.1-44.3l-9.6-6.5-6.4 9.7c-8.2 12.5-12.3 29.9-11 46.6.6 5.8 2.5 16.4 8.4 25.5-5.9 3.3-17.6 7.7-33.2 7.4H1.7l-.6 3.5c-2.8 16.7-2.8 69 30.7 109.1 25.5 30.5 63.6 46 113.4 46 108 0 187.8-50.3 225.3-141.9 14.7.3 46.4.1 62.7-31.4.4-.7 1.4-2.6 4.2-8.6l1.6-3.3-9.1-6.2c-10-6.5-32.7-9-50.3-5.6zM240 0h-45.3v41.7H240V0zm0 50.1h-45.3v41.7H240V50.1zm-53.6 0h-45.3v41.7h45.3V50.1zm-53.5 0H87.6v41.7h45.3V50.1zm-53.6 50.1H34v41.7h45.3v-41.7zm53.6 0H87.6v41.7h45.3v-41.7zm53.5 0h-45.3v41.7h45.3v-41.7zm53.6 0h-45.3v41.7H240v-41.7zm53.6 0h-45.3v41.7h45.3v-41.7zM569 90.8c-3.3 0-6.1 1.1-8.2 3.3-2.2 2.2-3.3 5.1-3.3 8.4V159c-11.2-9.3-24.1-13.9-38.9-13.9-17.1 0-31.7 6.2-43.8 18.6-12.1 12.4-18.1 27.3-18.1 44.8s6.1 32.4 18.1 44.8c12.1 12.4 26.7 18.6 43.8 18.6s31.6-6.2 43.8-18.6c12.1-12.2 18.1-27.2 18.1-44.8V102.6c0-3.4-1.1-6.2-3.4-8.4-2.1-2.3-4.8-3.4-8.1-3.4zm-14.5 133.1c-2 4.8-4.8 9-8.3 12.6s-7.6 6.5-12.3 8.6-9.8 3.2-15.2 3.2-10.5-1-15.3-3.2c-4.7-2.1-8.8-5-12.3-8.6s-6.2-7.8-8.2-12.6-3-10-3-15.4 1-10.6 3-15.4c2-4.8 4.8-9 8.2-12.6 3.5-3.6 7.6-6.4 12.3-8.6 4.7-2.1 9.8-3.2 15.3-3.2s10.4 1 15.2 3.2c4.7 2.1 8.8 5 12.3 8.6s6.3 7.8 8.3 12.6 3 9.9 3 15.3c0 5.5-1 10.6-3 15.5zm521.1-60.2c-12.2-12.4-26.9-18.6-43.8-18.6-17 0-31.7 6.2-43.8 18.6-12.1 12.4-18.1 27.3-18.1 44.8s6.1 32.4 18.1 44.8c12.1 12.4 26.7 18.6 43.8 18.6 15.6 0 29-5.1 40.5-15.4 2.2-2.3 3.3-5.2 3.3-8.5s-1.1-6.2-3.3-8.4c-2.2-2.2-4.9-3.3-8.2-3.3-2.9.1-5.4 1-7.6 3-3.5 3-7.2 5.3-11.3 6.8-4.1 1.5-8.5 2.3-13.4 2.3-4.3 0-8.4-.7-12.3-2-3.9-1.4-7.6-3.3-10.8-5.7-3.3-2.5-6.1-5.4-8.6-8.8-2.4-3.4-4.3-7.2-5.5-11.4h87.6c3.2 0 6-1.1 8.2-3.3 2.3-2.2 3.4-5.1 3.4-8.4 0-8.8-1.5-16.9-4.5-24.4-3.1-7.7-7.6-14.5-13.7-20.7zm-81.2 33.1c1.2-4.1 3-7.9 5.4-11.4 2.4-3.4 5.3-6.4 8.6-8.8 3.3-2.5 7-4.3 11-5.7s8.1-2 12.3-2c4.2 0 8.3.7 12.2 2 4 1.4 7.6 3.3 10.8 5.7 3.3 2.5 6.2 5.4 8.6 8.8 2.5 3.4 4.3 7.2 5.6 11.4h-74.5zm202.5-43.7c-2.1-2-4.7-3.6-7.8-4.8-3.1-1.2-6.6-2-10.3-2.4-3.7-.5-7.2-.7-10.5-.7-7.4 0-14.3 1.2-20.8 3.6s-12.5 5.9-18 10.4V157c0-3.3-1.1-6-3.4-8.3s-4.9-3.5-8.1-3.5-6 1.2-8.2 3.5c-2.3 2.3-3.4 5.1-3.4 8.3v103.2c0 3.3 1.1 6 3.4 8.3s5 3.5 8.2 3.5 5.9-1.2 8.1-3.5c2.3-2.3 3.4-5.1 3.4-8.3v-51.6c0-5.5 1-10.7 3-15.5s4.8-9 8.3-12.6 7.6-6.4 12.3-8.5c4.7-2.1 9.8-3.1 15.2-3.1 5.4 0 10.5 1 15.2 2.8 1.8.8 3.5 1.3 4.9 1.3 1.6 0 3.1-.3 4.5-.9 1.4-.6 2.6-1.5 3.7-2.5 1-1.1 1.9-2.3 2.5-3.8.6-1.4.9-3 .9-4.6 0-3.4-1-6.1-3.1-8.1zm-497.3 10.6c-12.2-12.4-26.9-18.6-43.8-18.6s-31.7 6.2-43.8 18.6c-12.1 12.4-18.1 27.3-18.1 44.8s6.1 32.4 18.1 44.8c12.1 12.4 26.7 18.6 43.8 18.6s31.6-6.2 43.8-18.6c12.1-12.2 18.1-27.2 18.1-44.8-.1-8.8-1.6-16.9-4.6-24.3-3-7.4-7.5-14.3-13.5-20.5zm-8 60.2c-2 4.8-4.8 9-8.3 12.6s-7.6 6.5-12.3 8.6-9.8 3.2-15.2 3.2-10.5-1-15.3-3.2c-4.7-2.1-8.8-5-12.3-8.6s-6.2-7.8-8.2-12.6-3-10-3-15.4 1-10.6 3-15.4c2-4.8 4.8-9 8.2-12.6 3.5-3.6 7.6-6.4 12.3-8.6 4.7-2.1 9.8-3.2 15.3-3.2s10.4 1 15.2 3.2c4.7 2.1 8.8 5 12.3 8.6s6.3 7.8 8.3 12.6 3 9.9 3 15.3c0 5.5-1 10.6-3 15.5zm265.6-67c0-1.6-.3-3.1-.9-4.5-.6-1.4-1.4-2.7-2.5-3.8-1-1.1-2.3-2-3.7-2.5-1.4-.6-2.9-.9-4.5-.9-2.3 0-4.4.6-6.2 1.8l-66.2 44v-88.3c0-3.3-1.1-6.1-3.4-8.4s-4.9-3.5-8.1-3.5-6 1.2-8.2 3.5c-2.3 2.3-3.4 5.1-3.4 8.4V260c0 3.3 1.1 6.1 3.4 8.4 2.3 2.3 5 3.5 8.2 3.5s5.9-1.2 8.1-3.5c2.3-2.3 3.4-5.1 3.4-8.4v-40.9l13.5-9.1 51.1 58.7c2.1 2 4.7 3 7.7 3 1.6 0 3.1-.3 4.5-.9s2.6-1.5 3.7-2.5c1-1.1 1.9-2.3 2.5-3.8.6-1.4.9-3 .9-4.5 0-3.1-1.1-5.8-3.2-8.3L906.5 197l46.4-30.8c2.9-2 4.3-5.1 4.3-9.3zm-192.1 23.5c3.5-3.6 7.7-6.4 12.4-8.5s9.8-3.1 15.2-3.1c4.9 0 9.4.8 13.5 2.5s8.1 4.1 11.8 7.3c2.2 1.8 4.7 2.7 7.5 2.7 3.3 0 6.1-1.1 8.2-3.4 2.2-2.3 3.3-5.1 3.3-8.5s-1.3-6.5-4-8.9c-11.4-10.3-24.8-15.4-40.4-15.4-17.1 0-31.7 6.2-43.8 18.6-12.1 12.4-18.1 27.3-18.1 44.8s6.1 32.4 18.1 44.8c12.1 12.4 26.7 18.6 43.8 18.6 15.5 0 29-5.1 40.4-15.4 2.4-2.5 3.7-5.4 3.7-8.7s-1.1-6.2-3.3-8.4-4.9-3.3-8.2-3.3c-2.8.1-5.2.9-7.3 2.5-3.7 3.3-7.6 5.7-11.7 7.3-4.1 1.6-8.6 2.4-13.5 2.4-5.4 0-10.4-1-15.2-3.1-4.7-2.1-8.9-4.9-12.4-8.5-3.5-3.5-6.3-7.8-8.4-12.6-2-4.8-3-10-3-15.5s1-10.7 3-15.5c2.1-4.9 4.9-9 8.4-12.7z" fill="#1d63ed"/></svg>