<svg width="1200" height="309" fill="none" xmlns="http://www.w3.org/2000/svg"><path d="M379.645 111.728c-2.267-16.694-11.455-31.177-28.142-44.282l-9.601-6.47-6.427 9.725c-8.2 12.521-12.32 29.925-10.96 46.578.618 5.843 2.513 16.361 8.446 25.543-5.933 3.255-17.635 7.721-33.209 7.387H1.688l-.577 3.464c-2.802 16.737-2.76 68.991 30.737 109.141 25.464 30.51 63.618 45.994 113.392 45.994 107.952 0 187.845-50.334 225.257-141.862 14.71.292 46.395.083 62.67-31.386.412-.71 1.401-2.63 4.244-8.598l1.566-3.255-9.147-6.177c-9.889-6.72-32.633-9.182-50.144-5.802h-.041zM240.007 0h-45.324v41.736h45.324V0zm0 50.084h-45.324V91.82h45.324V50.084zm-53.564 0h-45.324V91.82h45.324V50.084zm-53.564 0H87.555V91.82h45.324V50.084zm-53.564 50.083H33.99v41.737h45.323v-41.737zm53.564 0H87.555v41.737h45.324v-41.737zm53.564 0h-45.324v41.737h45.324v-41.737zm53.564 0h-45.324v41.737h45.324v-41.737zm53.564 0h-45.323v41.737h45.323v-41.737zm275.443-9.349c-3.337 0-6.056 1.127-8.24 3.34-2.184 2.211-3.255 5.05-3.255 8.43v56.469c-11.208-9.265-24.145-13.939-38.855-13.939-17.099 0-31.726 6.176-43.84 18.572-12.114 12.354-18.13 27.296-18.13 44.825 0 17.529 6.057 32.429 18.13 44.825 12.114 12.354 26.7 18.573 43.84 18.573 17.141 0 31.562-6.177 43.84-18.573 12.114-12.229 18.13-27.17 18.13-44.825V102.588c0-3.38-1.113-6.219-3.379-8.43-2.266-2.213-4.986-3.34-8.241-3.34zM554.47 223.874c-2.019 4.8-4.78 9.015-8.282 12.605-3.502 3.631-7.623 6.469-12.32 8.597-4.738 2.129-9.765 3.172-15.163 3.172-5.397 0-10.548-1.043-15.286-3.172-4.738-2.128-8.818-4.966-12.279-8.556-3.461-3.589-6.221-7.804-8.24-12.604-2.019-4.842-3.049-9.975-3.049-15.401s1.03-10.559 3.049-15.401c2.019-4.841 4.779-9.015 8.24-12.604 3.461-3.589 7.582-6.427 12.279-8.556 4.738-2.129 9.806-3.172 15.286-3.172s10.425 1.043 15.163 3.172c4.738 2.129 8.818 4.967 12.32 8.598 3.502 3.631 6.263 7.846 8.282 12.604 2.019 4.8 3.049 9.892 3.049 15.317 0 5.426-1.03 10.56-3.049 15.318v.083zm521.1-60.142c-12.24-12.354-26.87-18.573-43.84-18.573-16.98 0-31.73 6.177-43.844 18.573-12.114 12.354-18.129 27.296-18.129 44.825 0 17.529 6.057 32.429 18.129 44.825 12.114 12.354 26.704 18.572 43.844 18.572 15.57 0 29.04-5.133 40.5-15.4 2.22-2.338 3.34-5.176 3.34-8.473 0-3.297-1.07-6.218-3.26-8.431-2.18-2.212-4.94-3.338-8.24-3.338-2.88.083-5.44 1.043-7.62 2.963-3.46 3.005-7.21 5.3-11.29 6.803-4.08 1.502-8.53 2.254-13.39 2.254-4.29 0-8.41-.668-12.32-2.045-3.92-1.378-7.58-3.256-10.84-5.718a38.523 38.523 0 01-8.57-8.848 38.383 38.383 0 01-5.52-11.394h87.64c3.25 0 5.97-1.127 8.24-3.339 2.27-2.212 3.38-5.05 3.38-8.431 0-8.765-1.53-16.903-4.53-24.374-3.01-7.513-7.59-14.316-13.6-20.409l-.08-.042zm-81.133 33.055a38.13 38.13 0 015.439-11.394c2.434-3.422 5.314-6.386 8.614-8.848 3.34-2.462 6.96-4.341 10.96-5.718a37.309 37.309 0 0112.28-2.045c4.2 0 8.28.668 12.23 2.045 3.96 1.377 7.59 3.256 10.84 5.718a38.669 38.669 0 018.61 8.848c2.47 3.423 4.33 7.221 5.61 11.394h-74.583zm202.513-43.698c-2.06-2.045-4.66-3.631-7.79-4.8-3.13-1.168-6.55-1.961-10.3-2.42a85.386 85.386 0 00-10.46-.668c-7.38 0-14.3 1.21-20.81 3.631-6.51 2.421-12.53 5.885-18.05 10.392v-2.253c0-3.256-1.11-6.01-3.38-8.306-2.26-2.295-4.94-3.464-8.11-3.464-3.18 0-5.98 1.169-8.24 3.464-2.27 2.296-3.38 5.092-3.38 8.306v103.214c0 3.255 1.11 6.01 3.38 8.305 2.26 2.296 4.98 3.464 8.24 3.464 3.25 0 5.89-1.168 8.11-3.464 2.27-2.295 3.38-5.092 3.38-8.305v-51.628c0-5.509 1.03-10.685 3.05-15.526 2.02-4.842 4.78-9.015 8.28-12.604 3.51-3.59 7.63-6.428 12.32-8.473 4.74-2.087 9.77-3.13 15.17-3.13 5.39 0 10.5.96 15.16 2.838 1.85.835 3.46 1.252 4.86 1.252 1.61 0 3.13-.292 4.53-.918 1.4-.626 2.64-1.461 3.67-2.546a12.57 12.57 0 002.47-3.798c.62-1.419.95-2.963.95-4.633 0-3.255-1.03-5.885-3.09-7.93h.04zm-497.363 10.643c-12.237-12.354-26.864-18.573-43.84-18.573-16.976 0-31.726 6.177-43.84 18.573-12.114 12.354-18.129 27.296-18.129 44.825 0 17.529 6.056 32.429 18.129 44.825 12.114 12.354 26.7 18.572 43.84 18.572 17.141 0 31.562-6.177 43.84-18.572 12.114-12.229 18.13-27.171 18.13-44.825-.083-8.765-1.607-16.862-4.574-24.332-3.008-7.471-7.499-14.316-13.556-20.493zm-8.034 60.142c-2.019 4.8-4.78 9.015-8.282 12.605-3.502 3.631-7.623 6.469-12.32 8.597-4.697 2.129-9.765 3.172-15.163 3.172-5.397 0-10.548-1.043-15.286-3.172-4.738-2.128-8.818-4.966-12.279-8.556-3.461-3.589-6.221-7.804-8.24-12.604-2.019-4.842-3.049-9.975-3.049-15.401s1.03-10.559 3.049-15.401c2.019-4.841 4.779-9.015 8.24-12.604 3.461-3.589 7.582-6.427 12.279-8.556 4.738-2.129 9.806-3.172 15.286-3.172s10.425 1.043 15.163 3.172c4.738 2.129 8.818 4.967 12.32 8.598 3.502 3.631 6.263 7.846 8.282 12.604 2.019 4.8 3.049 9.892 3.049 15.317 0 5.426-1.03 10.56-3.049 15.318v.083zm265.678-66.945c0-1.586-.33-3.089-.948-4.508-.618-1.419-1.442-2.712-2.472-3.798a10.791 10.791 0 00-3.667-2.546 11.734 11.734 0 00-4.532-.918c-2.308 0-4.368.585-6.181 1.795l-66.172 44.032v-88.314c0-3.34-1.113-6.136-3.379-8.431-2.266-2.296-4.944-3.464-8.117-3.464-3.173 0-5.974 1.168-8.241 3.464-2.266 2.295-3.378 5.092-3.378 8.431v157.346c0 3.255 1.112 6.052 3.378 8.389 2.267 2.337 4.986 3.506 8.241 3.506s5.892-1.169 8.117-3.506c2.266-2.337 3.379-5.134 3.379-8.389v-40.86l13.514-9.057 51.134 58.723c2.06 2.045 4.656 3.047 7.746 3.047 1.607 0 3.131-.292 4.532-.918a10.791 10.791 0 003.667-2.546 12.537 12.537 0 002.472-3.798c.619-1.419.948-2.963.948-4.508 0-3.088-1.071-5.843-3.214-8.263l-47.589-54.8 46.353-30.802c2.967-2.045 4.409-5.175 4.409-9.391v.084zM765.1 180.427a38.937 38.937 0 0112.403-8.473c4.738-2.087 9.765-3.13 15.162-3.13 4.862 0 9.353.835 13.515 2.504 4.12 1.669 8.076 4.132 11.825 7.346 2.225 1.794 4.739 2.712 7.54 2.712 3.338 0 6.057-1.126 8.241-3.38 2.184-2.254 3.255-5.092 3.255-8.473 0-3.38-1.318-6.511-3.997-8.931-11.372-10.267-24.845-15.401-40.379-15.401-17.099 0-31.726 6.177-43.84 18.573-12.114 12.354-18.129 27.295-18.129 44.825 0 17.529 6.057 32.429 18.129 44.824 12.114 12.354 26.7 18.573 43.84 18.573 15.493 0 28.966-5.133 40.379-15.401 2.431-2.504 3.668-5.384 3.668-8.722 0-3.339-1.072-6.219-3.256-8.431-2.183-2.212-4.944-3.339-8.24-3.339-2.802.083-5.233.918-7.293 2.504-3.708 3.256-7.581 5.676-11.743 7.304-4.12 1.628-8.611 2.421-13.515 2.421-5.397 0-10.424-1.044-15.162-3.131-4.739-2.086-8.859-4.924-12.403-8.472-3.543-3.548-6.345-7.805-8.364-12.604-2.019-4.842-3.049-10.017-3.049-15.526 0-5.51 1.03-10.685 3.049-15.526 2.019-4.842 4.821-9.015 8.364-12.605v-.041z" fill="#fff"/></svg>